<svg width="81" height="82" viewBox="0 0 81 82" fill="none" xmlns="http://www.w3.org/2000/svg">
<path d="M15.9393 32.9392C6.99997 51.5 28 76 47.9393 65.9392" stroke="#62B1FA" stroke-width="5"/>
<path d="M65.9393 47.9392C73.5 21 55 9.5 34.9393 13.9392" stroke="#7EB886" stroke-width="5"/>
<path d="M12.8279 34.6935L4.32373 48.5836" stroke="#62B1FA" stroke-width="5" stroke-linecap="round"/>
<path d="M68 46.8383L77.1312 33.3521" stroke="#7EB886" stroke-width="5" stroke-linecap="round"/>
<path d="M24.1847 45.8685L12 35.489" stroke="#62B1FA" stroke-width="5" stroke-linecap="round"/>
<path d="M57 35.4891L69.1847 45.8686" stroke="#7EB886" stroke-width="5" stroke-linecap="round"/>
<path d="M33.8277 20.003C33.334 25.7069 31.6557 29.208 29.2398 31.239C26.8239 33.2699 23.0864 34.3216 17.3825 33.8278C11.6786 33.334 8.17751 31.6557 6.14657 29.2398C4.11563 26.8239 3.06399 23.0865 3.55778 17.3825C4.05157 11.6786 5.72985 8.17754 8.14575 6.14659C10.5617 4.11565 14.2991 3.06401 20.003 3.5578C25.7069 4.05159 29.208 5.72987 31.239 8.14578C33.2699 10.5617 34.3215 14.2991 33.8277 20.003Z" fill="#6AA645" fill-opacity="0.42" stroke="#7EB886" stroke-width="6"/>
<path d="M77.0242 60.2974C77.9738 65.9433 77.2253 69.753 75.3946 72.324C73.564 74.895 70.2088 76.8487 64.5628 77.7983C58.9169 78.7479 55.1071 77.9994 52.5361 76.1687C49.9652 74.3381 48.0115 70.9828 47.0619 65.3369C46.1123 59.691 46.8608 55.8812 48.6914 53.3102C50.5221 50.7392 53.8773 48.7856 59.5233 47.836C65.1692 46.8863 68.9789 47.6349 71.5499 49.4655C74.1209 51.2962 76.0746 54.6514 77.0242 60.2974Z" fill="#387EB1" fill-opacity="0.7" stroke="#62B1FA" stroke-width="6"/>
</svg>
